# xmcd CD database file
#
# Track frame offsets:
#	150
#	16490
#	33832
#	53385
#	70252
#	92722
#	108415
#	126897
#	145187
#	163842
#
# Disc length: 2450 seconds
#
# Revision: 1
# Processed by: cddbd v1.5PL3 Copyright (c) Steve Scherf et al.
# Submitted via: CDex 1.51
#
DISCID=7f09900a
DTITLE=Maria Muldaur - Open Your Eyes
DYEAR=1979
DGENRE=Blues
TTITLE0=Fall In Love Again
TTITLE1=Finally Made Love To A Man
TTITLE2=Birds Fly South (When Winter Comes)
TTITLE3=Heart Of Fire
TTITLE4=Lover Man (Oh Where Can You Be)
TTITLE5=Open Your Eyes
TTITLE6=(No More) Dancin' In The Street
TTITLE7=Elona
TTITLE8=Clean Up Woman
TTITLE9=Love Is Everything
EXTD=YEAR: 1979
EXTT0=
EXTT1=
EXTT2=
EXTT3=
EXTT4=
EXTT5=
EXTT6=
EXTT7=
EXTT8=
EXTT9=
PLAYORDER=
